<svg xmlns="http://www.w3.org/2000/svg" viewBox="0 0 199.62 68.34"><title>H-E-B logo</title><path d="M569.15,477.41H437.25a33.51,33.51,0,0,0-23.94,10,34.4,34.4,0,0,0,0,48.35,33.48,33.48,0,0,0,24,10h131.9a33.33,33.33,0,0,0,23.91-10,34.22,34.22,0,0,0-23.91-58.33Z" transform="translate(-403.38 -477.41)" style="fill:#ee3124;fill-rule:evenodd"/><path d="M569.17,541.47a29.91,29.91,0,0,0,0-59.82l-131.9,0a29.9,29.9,0,0,0,0,59.79Z" transform="translate(-403.38 -477.41)" style="fill:#fff;fill-rule:evenodd"/><path d="M569.17,538.53a27,27,0,0,0,0-53.93l-131.9,0a27,27,0,0,0,0,54Z" transform="translate(-403.38 -477.41)" style="fill:#ee3124;fill-rule:evenodd"/><path d="M515.24,510H499.69l.07-5.2h21.7l.57-8.15H485.5l1.23,29.82h33.7l.46-5.6H499.49l.09-4.85H515l.22-6Zm19.75.11,0,6h-8.78l0-6Zm-54.5,6v-6l-8.71,0v6ZM453.25,516l.18,10.49,12.15,0,1.76-29.84H452.92l.2,13.35h-8.6l.17-13.35H430.3l1.8,29.86h12.13l.15-10.49h8.86Zm103.88,5c2.09,0,4.78,0,5-2.68.24-2.41-1.93-2.83-3.93-2.86h-4.08l-.09,5.53h3.07Zm6.15-13.9c.07-2-2.33-2.9-4.41-2.9h-4.52l-.11,6h4.23c2.59,0,4.63-.64,4.8-3.1Zm4.54-10.52H540.06l1.76,29.82H566c7.22,0,9-3.45,9.54-6.24.5-2.61.79-6.57-4.59-7.13,4.19-.93,6.28-3.54,6.36-8.24,0-3-1.62-8.26-9.5-8.21Z" transform="translate(-403.38 -477.41)" style="fill:#fff;fill-rule:evenodd"/></svg>